<?xml version="1.0" standalone="no"?>
<!DOCTYPE svg PUBLIC "-//W3C//DTD SVG 20010904//EN"
 "http://www.w3.org/TR/2001/REC-SVG-20010904/DTD/svg10.dtd">
<svg version="1.0" xmlns="http://www.w3.org/2000/svg"
 width="400.000000pt" height="800.000000pt" viewBox="0 0 400.000000 800.000000"
 preserveAspectRatio="xMidYMid meet">

<g transform="translate(0.000000,800.000000) scale(0.100000,-0.100000)"
fill="#000000" stroke="none">
<path d="M1885 7599 c-383 -31 -697 -142 -1005 -356 -14 -10 -63 -49 -110 -88
-370 -304 -609 -719 -690 -1198 -33 -195 -36 -307 -11 -492 41 -307 46 -330
101 -495 51 -153 168 -441 252 -620 25 -52 67 -142 94 -200 109 -235 412 -825
579 -1130 32 -58 89 -163 128 -235 39 -71 90 -163 114 -203 24 -41 43 -75 43
-77 0 -2 51 -90 113 -197 302 -514 471 -768 512 -768 32 0 148 148 282 363
120 192 328 544 406 687 16 30 51 93 77 140 80 142 160 290 218 400 31 58 82
155 114 215 77 144 363 718 410 820 20 44 50 109 66 145 66 142 121 271 167
385 26 66 53 134 60 150 25 59 84 252 99 325 29 145 56 384 56 506 0 331 -103
691 -282 984 -133 216 -350 448 -553 589 -217 150 -471 260 -735 317 -61 13
-357 46 -390 43 -8 -1 -60 -5 -115 -10z m405 -510 c196 -39 365 -109 530 -220
126 -84 204 -155 300 -269 30 -36 58 -67 61 -70 15 -12 109 -172 142 -241 51
-105 104 -274 123 -388 19 -115 22 -344 5 -456 -48 -323 -220 -648 -457 -864
-191 -175 -455 -306 -719 -357 -126 -25 -406 -25 -530 -1 -311 61 -546 187
-770 412 -171 171 -277 341 -349 556 -58 175 -71 260 -70 469 0 269 38 431
150 656 226 449 688 759 1189 798 98 7 292 -5 395 -25z"/>
<path d="M2087 6455 c-28 -29 -24 -12 -286 -1101 -62 -260 -64 -287 -17 -337
21 -22 34 -27 75 -27 41 0 53 4 70 26 25 32 22 20 147 539 25 105 65 271 89
370 114 468 113 464 61 519 -43 46 -99 50 -139 11z"/>
<path d="M1510 6225 c-79 -36 -216 -97 -385 -170 -16 -7 -66 -28 -110 -48 -44
-19 -108 -47 -142 -61 -35 -14 -87 -37 -117 -51 -30 -14 -66 -29 -80 -35 -26
-9 -26 -10 -26 -122 0 -105 2 -114 24 -135 13 -12 108 -59 212 -104 171 -73
351 -151 459 -198 22 -10 93 -41 158 -69 64 -29 122 -52 127 -52 15 0 13 252
-2 272 -12 15 -123 67 -178 83 -14 4 -29 11 -35 15 -5 3 -32 15 -60 24 -27 10
-69 26 -92 37 -24 10 -46 19 -49 19 -3 0 -20 6 -37 14 -18 8 -52 21 -77 31
-70 25 -100 39 -100 46 0 3 15 10 33 16 17 6 64 23 102 38 39 15 90 35 115 45
25 9 59 22 75 28 17 7 38 17 47 22 10 6 24 10 31 10 7 0 37 11 65 25 29 14 56
25 61 25 4 0 31 10 60 21 l51 22 0 129 c0 118 -9 169 -28 167 -4 0 -50 -20
-102 -44z"/>
<path d="M2370 6135 c0 -140 10 -169 61 -180 16 -4 31 -11 34 -16 4 -5 13 -9
22 -9 8 0 41 -11 72 -24 31 -13 85 -35 121 -49 57 -21 166 -64 225 -87 68 -26
105 -44 105 -49 0 -6 -200 -87 -340 -138 -36 -13 -78 -30 -95 -37 -45 -21
-136 -57 -172 -69 l-33 -10 0 -134 c0 -75 4 -133 9 -133 5 0 11 -6 13 -14 2
-10 98 27 348 136 190 82 406 175 480 206 l135 57 3 118 c2 75 -1 117 -8 117
-5 0 -10 6 -10 13 0 7 -19 21 -42 31 -24 10 -61 26 -83 36 -22 10 -79 34 -128
54 -48 20 -106 45 -130 55 -23 11 -107 47 -187 81 -79 34 -149 65 -155 69 -5
5 -21 12 -35 16 -14 4 -43 16 -65 25 -66 30 -137 60 -141 60 -2 0 -4 -56 -4
-125z"/>
<path d="M1410 1869 c-287 -48 -414 -77 -595 -135 -117 -38 -338 -139 -392
-180 -17 -13 -36 -24 -41 -24 -6 0 -46 -35 -89 -77 -105 -103 -145 -182 -146
-289 0 -65 4 -82 36 -147 139 -282 615 -486 1347 -579 143 -18 804 -18 954 0
611 73 1062 238 1271 464 78 84 108 151 113 250 4 71 2 82 -32 152 -21 44 -53
91 -77 113 -23 21 -53 50 -67 64 -102 100 -378 228 -642 298 -174 46 -525 109
-537 97 -17 -17 11 -34 64 -40 172 -20 442 -81 623 -142 277 -94 502 -243 568
-376 60 -123 23 -267 -98 -376 -37 -33 -185 -132 -199 -132 -6 0 -11 -4 -11
-9 0 -5 -10 -13 -22 -17 -13 -3 -54 -22 -93 -40 -38 -19 -80 -34 -92 -34 -12
0 -23 -3 -25 -8 -6 -15 -267 -86 -433 -118 -249 -48 -342 -56 -725 -61 -261
-4 -408 -2 -485 7 -144 16 -344 47 -425 66 -36 8 -85 19 -110 25 -57 12 -242
69 -255 79 -5 3 -38 15 -72 25 -35 10 -63 22 -63 27 0 4 -5 8 -11 8 -26 0
-202 99 -258 145 -176 145 -219 304 -120 449 142 211 573 394 1119 474 87 13
115 21 115 32 0 19 -24 21 -95 9z"/>
</g>
</svg>
